<mxfile host="Electron" agent="Mozilla/5.0 (Windows NT 10.0; Win64; x64) AppleWebKit/537.36 (KHTML, like Gecko) draw.io/27.0.9 Chrome/134.0.6998.205 Electron/35.4.0 Safari/537.36" version="27.0.9">
  <diagram id="C5RBs43oDa-KdzZeNtuy" name="Page-1">
    <mxGraphModel dx="1426" dy="841" grid="1" gridSize="10" guides="1" tooltips="1" connect="1" arrows="1" fold="1" page="1" pageScale="1" pageWidth="827" pageHeight="1169" math="0" shadow="0">
      <root>
        <mxCell id="WIyWlLk6GJQsqaUBKTNV-0" />
        <mxCell id="WIyWlLk6GJQsqaUBKTNV-1" parent="WIyWlLk6GJQsqaUBKTNV-0" />
        <mxCell id="gvsxq40w_VTdR0jsHKIa-3" style="edgeStyle=orthogonalEdgeStyle;rounded=0;orthogonalLoop=1;jettySize=auto;html=1;" edge="1" parent="WIyWlLk6GJQsqaUBKTNV-1" source="gvsxq40w_VTdR0jsHKIa-0" target="gvsxq40w_VTdR0jsHKIa-1">
          <mxGeometry relative="1" as="geometry" />
        </mxCell>
        <mxCell id="gvsxq40w_VTdR0jsHKIa-0" value="Start" style="strokeWidth=2;html=1;shape=mxgraph.flowchart.start_1;whiteSpace=wrap;" vertex="1" parent="WIyWlLk6GJQsqaUBKTNV-1">
          <mxGeometry x="364" y="20" width="100" height="60" as="geometry" />
        </mxCell>
        <mxCell id="gvsxq40w_VTdR0jsHKIa-4" style="edgeStyle=orthogonalEdgeStyle;rounded=0;orthogonalLoop=1;jettySize=auto;html=1;entryX=0.5;entryY=0;entryDx=0;entryDy=0;" edge="1" parent="WIyWlLk6GJQsqaUBKTNV-1" source="gvsxq40w_VTdR0jsHKIa-1" target="gvsxq40w_VTdR0jsHKIa-2">
          <mxGeometry relative="1" as="geometry" />
        </mxCell>
        <mxCell id="gvsxq40w_VTdR0jsHKIa-1" value="Display regristration form" style="rounded=1;whiteSpace=wrap;html=1;absoluteArcSize=1;arcSize=14;strokeWidth=2;" vertex="1" parent="WIyWlLk6GJQsqaUBKTNV-1">
          <mxGeometry x="364" y="120" width="100" height="50" as="geometry" />
        </mxCell>
        <mxCell id="gvsxq40w_VTdR0jsHKIa-2" value="User submits form" style="rounded=1;whiteSpace=wrap;html=1;absoluteArcSize=1;arcSize=14;strokeWidth=2;" vertex="1" parent="WIyWlLk6GJQsqaUBKTNV-1">
          <mxGeometry x="364" y="210" width="100" height="50" as="geometry" />
        </mxCell>
        <mxCell id="gvsxq40w_VTdR0jsHKIa-9" style="edgeStyle=orthogonalEdgeStyle;rounded=0;orthogonalLoop=1;jettySize=auto;html=1;entryX=0.5;entryY=0;entryDx=0;entryDy=0;" edge="1" parent="WIyWlLk6GJQsqaUBKTNV-1" source="gvsxq40w_VTdR0jsHKIa-5" target="gvsxq40w_VTdR0jsHKIa-8">
          <mxGeometry relative="1" as="geometry" />
        </mxCell>
        <mxCell id="gvsxq40w_VTdR0jsHKIa-11" value="Yes" style="edgeLabel;html=1;align=center;verticalAlign=middle;resizable=0;points=[];" vertex="1" connectable="0" parent="gvsxq40w_VTdR0jsHKIa-9">
          <mxGeometry x="-0.2899" y="2" relative="1" as="geometry">
            <mxPoint as="offset" />
          </mxGeometry>
        </mxCell>
        <mxCell id="gvsxq40w_VTdR0jsHKIa-5" value="Inputs valid?" style="strokeWidth=2;html=1;shape=mxgraph.flowchart.decision;whiteSpace=wrap;" vertex="1" parent="WIyWlLk6GJQsqaUBKTNV-1">
          <mxGeometry x="356" y="300" width="116" height="100" as="geometry" />
        </mxCell>
        <mxCell id="gvsxq40w_VTdR0jsHKIa-6" style="edgeStyle=orthogonalEdgeStyle;rounded=0;orthogonalLoop=1;jettySize=auto;html=1;entryX=0.5;entryY=0;entryDx=0;entryDy=0;entryPerimeter=0;" edge="1" parent="WIyWlLk6GJQsqaUBKTNV-1" source="gvsxq40w_VTdR0jsHKIa-2" target="gvsxq40w_VTdR0jsHKIa-5">
          <mxGeometry relative="1" as="geometry" />
        </mxCell>
        <mxCell id="gvsxq40w_VTdR0jsHKIa-16" style="edgeStyle=orthogonalEdgeStyle;rounded=0;orthogonalLoop=1;jettySize=auto;html=1;entryX=0.5;entryY=0;entryDx=0;entryDy=0;" edge="1" parent="WIyWlLk6GJQsqaUBKTNV-1" source="gvsxq40w_VTdR0jsHKIa-7" target="gvsxq40w_VTdR0jsHKIa-15">
          <mxGeometry relative="1" as="geometry" />
        </mxCell>
        <mxCell id="gvsxq40w_VTdR0jsHKIa-7" value="Regristration Successful?" style="strokeWidth=2;html=1;shape=mxgraph.flowchart.decision;whiteSpace=wrap;" vertex="1" parent="WIyWlLk6GJQsqaUBKTNV-1">
          <mxGeometry x="347" y="440" width="134" height="100" as="geometry" />
        </mxCell>
        <mxCell id="gvsxq40w_VTdR0jsHKIa-10" style="edgeStyle=orthogonalEdgeStyle;rounded=0;orthogonalLoop=1;jettySize=auto;html=1;" edge="1" parent="WIyWlLk6GJQsqaUBKTNV-1" source="gvsxq40w_VTdR0jsHKIa-8" target="gvsxq40w_VTdR0jsHKIa-7">
          <mxGeometry relative="1" as="geometry">
            <Array as="points">
              <mxPoint x="580" y="490" />
            </Array>
          </mxGeometry>
        </mxCell>
        <mxCell id="gvsxq40w_VTdR0jsHKIa-8" value="Send to backend" style="rounded=0;whiteSpace=wrap;html=1;" vertex="1" parent="WIyWlLk6GJQsqaUBKTNV-1">
          <mxGeometry x="510" y="390" width="120" height="60" as="geometry" />
        </mxCell>
        <mxCell id="gvsxq40w_VTdR0jsHKIa-12" style="edgeStyle=orthogonalEdgeStyle;rounded=0;orthogonalLoop=1;jettySize=auto;html=1;entryX=0;entryY=0.5;entryDx=0;entryDy=0;entryPerimeter=0;" edge="1" parent="WIyWlLk6GJQsqaUBKTNV-1" source="gvsxq40w_VTdR0jsHKIa-7" target="gvsxq40w_VTdR0jsHKIa-5">
          <mxGeometry relative="1" as="geometry">
            <Array as="points">
              <mxPoint x="327" y="490" />
              <mxPoint x="327" y="350" />
            </Array>
          </mxGeometry>
        </mxCell>
        <mxCell id="gvsxq40w_VTdR0jsHKIa-13" value="No" style="edgeLabel;html=1;align=center;verticalAlign=middle;resizable=0;points=[];" vertex="1" connectable="0" parent="gvsxq40w_VTdR0jsHKIa-12">
          <mxGeometry x="-0.8201" y="1" relative="1" as="geometry">
            <mxPoint as="offset" />
          </mxGeometry>
        </mxCell>
        <mxCell id="gvsxq40w_VTdR0jsHKIa-14" value="No" style="edgeLabel;html=1;align=center;verticalAlign=middle;resizable=0;points=[];" vertex="1" connectable="0" parent="gvsxq40w_VTdR0jsHKIa-12">
          <mxGeometry x="0.7354" y="4" relative="1" as="geometry">
            <mxPoint as="offset" />
          </mxGeometry>
        </mxCell>
        <mxCell id="gvsxq40w_VTdR0jsHKIa-18" style="edgeStyle=orthogonalEdgeStyle;rounded=0;orthogonalLoop=1;jettySize=auto;html=1;" edge="1" parent="WIyWlLk6GJQsqaUBKTNV-1" source="gvsxq40w_VTdR0jsHKIa-15" target="gvsxq40w_VTdR0jsHKIa-17">
          <mxGeometry relative="1" as="geometry" />
        </mxCell>
        <mxCell id="gvsxq40w_VTdR0jsHKIa-15" value="Redirect to login" style="rounded=0;whiteSpace=wrap;html=1;" vertex="1" parent="WIyWlLk6GJQsqaUBKTNV-1">
          <mxGeometry x="354" y="585" width="120" height="60" as="geometry" />
        </mxCell>
        <mxCell id="gvsxq40w_VTdR0jsHKIa-17" value="End" style="strokeWidth=2;html=1;shape=mxgraph.flowchart.terminator;whiteSpace=wrap;" vertex="1" parent="WIyWlLk6GJQsqaUBKTNV-1">
          <mxGeometry x="364" y="690" width="100" height="60" as="geometry" />
        </mxCell>
      </root>
    </mxGraphModel>
  </diagram>
</mxfile>
